<?xml version="1.0" standalone="no"?>
<!DOCTYPE svg PUBLIC "-//W3C//DTD SVG 20010904//EN"
 "http://www.w3.org/TR/2001/REC-SVG-20010904/DTD/svg10.dtd">
<svg version="1.0" xmlns="http://www.w3.org/2000/svg"
 width="512.000000pt" height="512.000000pt" viewBox="0 0 512.000000 512.000000"
 preserveAspectRatio="xMidYMid meet">

<g transform="translate(0.000000,512.000000) scale(0.100000,-0.100000)"
fill="#000000" stroke="none">
<path d="M2560 3414 c-448 -49 -834 -261 -1117 -614 -80 -100 -86 -105 -131
-113 -78 -13 -296 -25 -487 -27 -99 -1 -223 -5 -274 -9 l-95 -6 62 -50 c34
-27 62 -54 62 -60 0 -5 -9 -77 -20 -159 -11 -81 -20 -165 -20 -186 0 -70 73
-140 147 -140 20 0 110 39 253 110 121 61 224 110 229 110 5 0 0 -28 -9 -63
-48 -172 -53 -515 -11 -705 106 -481 417 -885 846 -1097 201 -100 355 -144
576 -165 133 -13 1106 -7 1179 7 44 9 49 7 303 -119 281 -139 303 -146 377
-108 46 24 79 67 87 115 3 20 -5 121 -18 226 -20 159 -21 191 -10 199 49 29
175 149 239 225 369 439 482 997 310 1535 -151 473 -520 848 -996 1014 -228
79 -228 79 -872 81 -316 2 -591 1 -610 -1z m-105 -1418 c176 -81 217 -314 80
-451 -112 -111 -301 -107 -403 9 -48 55 -65 95 -70 167 -9 133 58 238 183 286
54 21 154 16 210 -11z m775 3 c102 -46 163 -141 164 -254 1 -116 -59 -211
-163 -259 -57 -26 -167 -27 -224 -2 -58 25 -122 90 -147 148 -33 77 -26 186
15 253 35 57 87 101 141 120 59 21 161 18 214 -6z m776 2 c183 -83 226 -314
86 -456 -105 -106 -268 -111 -380 -10 -150 135 -119 370 60 459 66 33 171 36
234 7z"/>
</g>
</svg>
